<svg width="192" height="192" viewBox="0 0 192 192" fill="none" xmlns="http://www.w3.org/2000/svg">
<rect x="0.527344" y="0.527344" width="190.898" height="190.898" rx="30.0586" fill="#FED368"/>
<path d="M65.9856 48.6302C62.427 48.6302 59.4359 49.1824 57.0123 50.2868C54.6194 51.3912 52.8248 52.9251 51.6283 54.8884C50.4319 56.8518 49.8337 59.1527 49.8337 61.791C49.8337 63.693 50.2785 65.2422 51.1682 66.4387C52.0885 67.6044 53.377 68.4634 55.0336 69.0156C56.6902 69.5371 58.6229 69.7979 60.8317 69.7979C64.421 69.7979 67.4121 69.2457 69.805 68.1413C72.1979 67.0369 73.9925 65.503 75.1889 63.5396C76.3854 61.5455 76.9836 59.2447 76.9836 56.6371C76.9836 54.7044 76.5234 53.1551 75.6031 51.9894C74.7134 50.8236 73.4403 49.98 71.7837 49.4585C70.1578 48.9063 68.2251 48.6302 65.9856 48.6302ZM60.6476 70.6262C54.3587 70.6262 49.4656 69.8132 45.9683 68.1873C42.5017 66.5614 40.7684 64.2912 40.7684 61.3768C40.7684 59.7202 41.3206 58.0943 42.425 56.499C43.5601 54.8731 45.2013 53.4159 47.3488 52.1274C49.5269 50.8083 52.1959 49.7652 55.3557 48.9983C58.5155 48.2007 62.1202 47.8018 66.1697 47.8018C72.4586 47.8018 77.3364 48.6148 80.803 50.2407C84.3003 51.8667 86.0489 54.1368 86.0489 57.0512C86.0489 58.7078 85.4814 60.3491 84.3463 61.975C83.2419 63.5703 81.6006 65.0275 79.4225 66.3466C77.275 67.6351 74.6214 68.6781 71.4616 69.4758C68.3018 70.2427 64.6971 70.6262 60.6476 70.6262ZM52.9628 48.4001C51.4596 47.9092 50.3092 47.173 49.5116 46.1913C48.7446 45.2096 48.3611 44.0898 48.3611 42.832C48.3611 41.2368 48.9594 39.9023 50.1558 38.8286C51.3522 37.7548 52.9935 37.218 55.0796 37.218C56.3374 37.218 57.5338 37.4021 58.6689 37.7702C59.804 38.1076 60.9391 38.5218 62.0742 39.0126C63.2092 39.4728 64.4057 39.887 65.6635 40.2551C66.9519 40.5926 68.3938 40.7613 69.989 40.7613C70.6946 40.7613 71.5996 40.7153 72.704 40.6232C73.8084 40.5005 74.7901 40.3165 75.6491 40.071C76.2933 39.0893 76.9222 38.3377 77.5358 37.8162C78.1494 37.2947 78.6862 37.2333 79.1464 37.6321C79.5145 37.9389 79.4992 38.3531 79.1004 38.8746C78.7016 39.3961 77.6892 39.9637 76.0633 40.5772C74.7748 41.743 73.6704 43.1695 72.7501 44.8568C71.8604 46.5134 71.0781 48.3694 70.4032 50.4248C69.7283 52.4802 69.084 54.7044 68.4705 57.0972L65.1113 70.212C64.5897 72.2368 63.7308 74.1388 62.5343 75.9181C61.3686 77.6974 59.7273 79.124 57.6105 80.1977C55.5244 81.3021 52.8401 81.8543 49.5576 81.8543C48.2078 81.8543 46.95 81.7316 45.7842 81.4861C44.6491 81.2407 43.7288 80.8112 43.0232 80.1977C42.3483 79.5841 42.0108 78.7405 42.0108 77.6668C42.0108 76.5624 42.4096 75.6267 43.2073 74.8597C44.0356 74.1235 45.2473 73.7553 46.8426 73.7553C48.1311 73.7553 49.2201 74.0314 50.1098 74.5836C50.9994 75.1358 51.4443 75.9948 51.4443 77.1606C51.4443 77.9889 51.1835 78.7251 50.662 79.3694C50.1711 80.0136 49.4349 80.5505 48.4532 80.98C48.6986 81.0106 48.898 81.026 49.0514 81.026C49.2048 81.0567 49.3582 81.072 49.5116 81.072C50.2172 81.072 50.8154 80.9033 51.3062 80.5658C51.8277 80.2284 52.2879 79.7068 52.6867 79.0012C53.0855 78.2957 53.469 77.3753 53.8371 76.2402C54.236 75.1358 54.6501 73.8167 55.0796 72.2828L58.7609 59.168C59.4359 56.8058 60.2948 54.735 61.3379 52.9557C62.4116 51.1764 63.6387 49.6118 65.0192 48.262C66.4304 46.8815 67.949 45.6237 69.5749 44.4886C71.2008 43.3229 72.9188 42.1878 74.7288 41.0834C72.8267 41.6356 71.0628 42.2798 69.4368 43.0161C67.8416 43.7524 66.2924 44.3966 64.7891 44.9488C63.3166 45.501 61.7981 45.7771 60.2335 45.7771C59.2825 45.7771 58.4542 45.6697 57.7486 45.455C57.043 45.2402 56.4141 44.9948 55.8619 44.7187C55.3404 44.4426 54.8342 44.1972 54.3433 43.9825C53.8832 43.7677 53.377 43.6603 52.8248 43.6603C52.2726 43.6603 51.8124 43.7984 51.4443 44.0745C51.1068 44.3199 50.9381 44.688 50.9381 45.1789C50.9381 45.7004 51.1528 46.1452 51.5823 46.5134C52.0118 46.8815 52.6561 47.2343 53.515 47.5718L52.9628 48.4001ZM119.884 40.7613H124.394C126.02 40.7613 127.554 40.7459 128.996 40.7153C130.468 40.6846 131.772 40.6539 132.907 40.6232L132.677 41.5436C131.634 41.5742 130.821 41.697 130.238 41.9117C129.655 42.0958 129.195 42.4639 128.857 43.0161C128.551 43.5376 128.244 44.3659 127.937 45.501L121.863 68.3253C121.587 69.4297 121.464 70.258 121.495 70.8103C121.556 71.3625 121.832 71.7306 122.323 71.9147C122.814 72.0987 123.566 72.2214 124.578 72.2828L124.394 73.2031C123.259 73.1418 121.97 73.1111 120.528 73.1111C119.087 73.0804 117.553 73.0651 115.927 73.0651C114.27 73.0651 112.69 73.0804 111.187 73.1111C109.714 73.1111 108.533 73.1418 107.644 73.2031L107.828 72.2828C108.902 72.2214 109.714 72.0987 110.267 71.9147C110.85 71.7306 111.31 71.3625 111.647 70.8103C111.985 70.258 112.291 69.4297 112.568 68.3253L119.24 43.5223L100.143 73.4332H99.1306L95.0351 46.5594L89.6972 66.8988C89.4824 67.7578 89.3751 68.6014 89.3751 69.4297C89.4057 70.2274 89.7125 70.8869 90.2954 71.4085C90.8783 71.93 91.9213 72.2214 93.4245 72.2828L93.2405 73.2031C92.8723 73.1724 92.3508 73.1571 91.6759 73.1571C91.0317 73.1264 90.3568 73.1111 89.6512 73.1111C88.9456 73.0804 88.3167 73.0651 87.7645 73.0651C86.9668 73.0651 86.1692 73.0804 85.3716 73.1111C84.574 73.1111 83.9144 73.1418 83.3929 73.2031L83.5769 72.2828C84.6507 72.2214 85.5096 71.93 86.1539 71.4085C86.8288 70.8869 87.3657 70.2274 87.7645 69.4297C88.1633 68.6014 88.4701 67.7578 88.6848 66.8988L94.3909 45.501C94.6977 44.3659 94.8204 43.5376 94.759 43.0161C94.6977 42.4639 94.4216 42.0958 93.9307 41.9117C93.4706 41.697 92.7189 41.5742 91.6759 41.5436L91.906 40.6232C92.765 40.6539 93.8847 40.6846 95.2652 40.7153C96.6764 40.7459 98.1489 40.7613 99.6828 40.7613C100.45 40.7613 101.201 40.7459 101.938 40.7153C102.674 40.6846 103.333 40.6539 103.916 40.6232L106.585 61.6069L119.884 40.7613ZM141.292 68.3253C141.016 69.4297 140.893 70.258 140.924 70.8103C140.955 71.3625 141.215 71.7306 141.706 71.9147C142.197 72.0987 142.964 72.2214 144.007 72.2828L143.823 73.2031C142.841 73.1418 141.568 73.1111 140.004 73.1111C138.439 73.0804 136.844 73.0651 135.218 73.0651C133.561 73.0651 132.012 73.0804 130.57 73.1111C129.128 73.1111 127.963 73.1418 127.073 73.2031L127.303 72.2828C128.315 72.2214 129.098 72.0987 129.65 71.9147C130.233 71.7306 130.693 71.3625 131.03 70.8103C131.368 70.258 131.675 69.4297 131.951 68.3253L138.025 45.501C138.332 44.3659 138.454 43.5376 138.393 43.0161C138.332 42.4639 138.056 42.0958 137.565 41.9117C137.105 41.697 136.353 41.5742 135.31 41.5436L135.54 40.6232C136.399 40.6539 137.549 40.6846 138.991 40.7153C140.464 40.7459 142.028 40.7613 143.685 40.7613C145.311 40.7613 146.875 40.7459 148.379 40.7153C149.882 40.6846 151.201 40.6539 152.336 40.6232L152.106 41.5436C151.063 41.5742 150.25 41.697 149.667 41.9117C149.084 42.0958 148.624 42.4639 148.287 43.0161C147.98 43.5376 147.673 44.3659 147.366 45.501L141.292 68.3253Z" fill="#333333"/>
<path d="M56.7618 107.006C57.8195 108.05 58.3484 109.341 58.3484 110.879C58.3484 112.418 57.8195 113.716 56.7618 114.774C55.7179 115.818 54.4061 116.36 52.8265 116.401V120.316H50.0449V116.401C48.4653 116.36 47.1466 115.818 46.0889 114.774C45.045 113.716 44.523 112.418 44.523 110.879C44.523 109.341 45.045 108.05 46.0889 107.006C47.1466 105.948 48.4653 105.399 50.0449 105.358V100.948H52.8265V105.358C54.4061 105.399 55.7179 105.948 56.7618 107.006ZM47.4076 110.879C47.4076 111.704 47.6548 112.397 48.1493 112.96C48.6576 113.524 49.2894 113.826 50.0449 113.867V107.912C49.2894 107.954 48.6576 108.256 48.1493 108.819C47.6548 109.382 47.4076 110.069 47.4076 110.879ZM52.8265 107.912V113.867C53.5957 113.826 54.2275 113.524 54.722 112.96C55.2165 112.397 55.4638 111.704 55.4638 110.879C55.4638 110.069 55.2097 109.382 54.7014 108.819C54.2069 108.256 53.5819 107.954 52.8265 107.912ZM64.6173 105.358C65.9634 105.358 67.0555 105.708 67.8934 106.408C68.7313 107.109 69.1502 108.132 69.1502 109.478V116.195H66.3687V113.558C65.778 115.454 64.5555 116.401 62.7011 116.401C61.8358 116.401 61.094 116.12 60.4759 115.557C59.8578 114.993 59.5487 114.259 59.5487 113.352C59.5487 111.36 60.9154 110.22 63.6489 109.932L65.3797 109.767C66.039 109.726 66.3687 109.444 66.3687 108.922C66.3687 108.537 66.2038 108.228 65.8742 107.995C65.5582 107.761 65.1462 107.645 64.6379 107.645C64.0885 107.645 63.6352 107.789 63.278 108.077C62.9346 108.352 62.7149 108.744 62.6187 109.252L59.8578 108.634C60.0089 107.686 60.5102 106.903 61.3619 106.285C62.2135 105.667 63.2987 105.358 64.6173 105.358ZM63.6901 114.197C64.4181 114.197 65.0431 113.949 65.5651 113.455C66.1008 112.96 66.3687 112.39 66.3687 111.745V111.477C66.2038 111.628 65.8879 111.731 65.4209 111.786L63.6283 111.992C63.23 112.047 62.914 112.178 62.6805 112.384C62.447 112.576 62.3303 112.823 62.3303 113.125C62.3303 113.441 62.4539 113.702 62.7011 113.908C62.9484 114.101 63.278 114.197 63.6901 114.197ZM81.6376 105.564L77.97 110.694L81.9672 116.195H78.6294L75.5388 112.095H74.0553V116.195H71.2737V105.564H74.0553V109.664H75.5388L78.5882 105.564H81.6376ZM87.818 115.454L90.8056 105.564H93.6283L89.1573 120.316H86.3345L87.5913 116.195H85.3455L82.0901 105.564H85.0983L87.818 115.454ZM93.1132 116.381H92.9278V113.929H93.2781C94.0336 113.929 94.528 113.75 94.7616 113.393C95.0088 113.022 95.1324 112.184 95.1324 110.879V105.564H104.342V116.195H101.561V108.015H97.7492V110.879C97.7492 112.803 97.4058 114.204 96.7189 115.083C96.0321 115.948 94.8302 116.381 93.1132 116.381ZM112.088 116.195H106.566V105.564H109.348V108.572H112.088C113.352 108.572 114.361 108.929 115.117 109.643C115.886 110.344 116.271 111.257 116.271 112.384C116.271 113.51 115.886 114.43 115.117 115.145C114.361 115.845 113.352 116.195 112.088 116.195ZM109.348 111.024V113.743H111.758C112.253 113.743 112.644 113.62 112.933 113.373C113.235 113.112 113.386 112.782 113.386 112.384C113.386 111.985 113.235 111.662 112.933 111.415C112.644 111.154 112.253 111.024 111.758 111.024H109.348ZM122.09 116.195H119.308V108.015H115.826V105.564H125.551V108.015H122.09V116.195ZM131.758 105.358C133.544 105.358 134.973 106.003 136.044 107.294C137.129 108.572 137.528 110.097 137.239 111.868H129.039C129.231 112.514 129.581 113.036 130.09 113.434C130.611 113.819 131.23 114.011 131.944 114.011C133.153 114.011 134.032 113.517 134.581 112.528L136.868 113.558C136.387 114.423 135.708 115.117 134.828 115.639C133.963 116.147 132.974 116.401 131.861 116.401C130.241 116.401 128.888 115.873 127.802 114.815C126.717 113.757 126.175 112.445 126.175 110.879C126.175 109.314 126.71 108.002 127.782 106.944C128.853 105.886 130.179 105.358 131.758 105.358ZM131.758 107.748C131.14 107.748 130.584 107.933 130.09 108.304C129.609 108.661 129.272 109.142 129.08 109.746H134.458C134.265 109.142 133.929 108.661 133.448 108.304C132.967 107.933 132.404 107.748 131.758 107.748ZM144.243 116.195H141.462V108.015H137.98V105.564H147.705V108.015H144.243V116.195ZM34.9589 125.564V136.195H32.507V126.141L30.6938 136.195H26.1815L24.3684 126.141V136.195H21.9165V125.564H26.6348L28.4274 135.454L30.2199 125.564H34.9589ZM41.6389 125.358C42.9851 125.358 44.0771 125.708 44.915 126.408C45.7529 127.109 46.1718 128.132 46.1718 129.478V136.195H43.3903V133.558C42.7996 135.454 41.5771 136.401 39.7228 136.401C38.8574 136.401 38.1156 136.12 37.4975 135.557C36.8794 134.993 36.5703 134.259 36.5703 133.352C36.5703 131.36 37.9371 130.22 40.6705 129.932L42.4013 129.767C43.0606 129.726 43.3903 129.444 43.3903 128.922C43.3903 128.537 43.2254 128.228 42.8958 127.995C42.5799 127.761 42.1678 127.645 41.6595 127.645C41.1101 127.645 40.6568 127.789 40.2997 128.077C39.9563 128.352 39.7365 128.744 39.6403 129.252L36.8794 128.634C37.0305 127.686 37.5319 126.903 38.3835 126.285C39.2351 125.667 40.3203 125.358 41.6389 125.358ZM40.7118 134.197C41.4398 134.197 42.0648 133.949 42.5867 133.455C43.1224 132.96 43.3903 132.39 43.3903 131.745V131.477C43.2254 131.628 42.9095 131.731 42.4425 131.786L40.6499 131.992C40.2516 132.047 39.9357 132.178 39.7022 132.384C39.4686 132.576 39.3519 132.823 39.3519 133.125C39.3519 133.441 39.4755 133.702 39.7228 133.908C39.97 134.101 40.2997 134.197 40.7118 134.197ZM53.4766 136.195H50.6951V128.015H47.213V125.564H56.9381V128.015H53.4766V136.195ZM63.1452 125.358C64.9309 125.358 66.3595 126.003 67.4309 127.294C68.516 128.572 68.9144 130.097 68.6259 131.868H60.4255C60.6178 132.514 60.9681 133.036 61.4763 133.434C61.9983 133.819 62.6164 134.011 63.3307 134.011C64.5395 134.011 65.4186 133.517 65.968 132.528L68.2551 133.558C67.7743 134.423 67.0944 135.117 66.2153 135.639C65.3499 136.147 64.3609 136.401 63.2483 136.401C61.6274 136.401 60.2744 135.873 59.1893 134.815C58.1041 133.757 57.5615 132.445 57.5615 130.879C57.5615 129.314 58.0972 128.002 59.1687 126.944C60.2401 125.886 61.5656 125.358 63.1452 125.358ZM63.1452 127.748C62.5271 127.748 61.9708 127.933 61.4763 128.304C60.9956 128.661 60.659 129.142 60.4667 129.746H65.8444C65.6521 129.142 65.3155 128.661 64.8348 128.304C64.354 127.933 63.7908 127.748 63.1452 127.748ZM83.5917 125.564V136.195H81.1399V126.141L79.3267 136.195H74.8144L73.0012 126.141V136.195H70.5494V125.564H75.2677L77.0602 135.454L78.8528 125.564H83.5917ZM90.2718 125.358C91.6179 125.358 92.71 125.708 93.5479 126.408C94.3858 127.109 94.8047 128.132 94.8047 129.478V136.195H92.0232V133.558C91.4325 135.454 90.21 136.401 88.3556 136.401C87.4903 136.401 86.7485 136.12 86.1304 135.557C85.5123 134.993 85.2032 134.259 85.2032 133.352C85.2032 131.36 86.5699 130.22 89.3034 129.932L91.0342 129.767C91.6935 129.726 92.0232 129.444 92.0232 128.922C92.0232 128.537 91.8583 128.228 91.5287 127.995C91.2127 127.761 90.8007 127.645 90.2924 127.645C89.743 127.645 89.2897 127.789 88.9325 128.077C88.5891 128.352 88.3694 128.744 88.2732 129.252L85.5123 128.634C85.6634 127.686 86.1647 126.903 87.0164 126.285C87.868 125.667 88.9532 125.358 90.2718 125.358ZM89.3446 134.197C90.0726 134.197 90.6976 133.949 91.2196 133.455C91.7553 132.96 92.0232 132.39 92.0232 131.745V131.477C91.8583 131.628 91.5424 131.731 91.0754 131.786L89.2828 131.992C88.8845 132.047 88.5685 132.178 88.335 132.384C88.1015 132.576 87.9848 132.823 87.9848 133.125C87.9848 133.441 88.1084 133.702 88.3556 133.908C88.6029 134.101 88.9325 134.197 89.3446 134.197ZM102.109 136.195H99.3279V128.015H95.8459V125.564H105.571V128.015H102.109V136.195ZM109.726 135.66L112.611 125.564H117.659V136.195H115.042V126.182L112.158 136.195H107.11V125.564H109.726V135.66ZM130.25 125.564L126.583 130.694L130.58 136.195H127.242L124.152 132.095H122.668V136.195H119.886V125.564H122.668V129.664H124.152L127.201 125.564H130.25ZM134.556 135.66L137.44 125.564H142.488V136.195H139.872V126.182L136.987 136.195H131.939V125.564H134.556V135.66ZM156.477 136.195H153.695V128.015H150.213V125.564H159.938V128.015H156.477V136.195ZM165.605 125.358C166.952 125.358 168.044 125.708 168.882 126.408C169.719 127.109 170.138 128.132 170.138 129.478V136.195H167.357V133.558C166.766 135.454 165.544 136.401 163.689 136.401C162.824 136.401 162.082 136.12 161.464 135.557C160.846 134.993 160.537 134.259 160.537 133.352C160.537 131.36 161.904 130.22 164.637 129.932L166.368 129.767C167.027 129.726 167.357 129.444 167.357 128.922C167.357 128.537 167.192 128.228 166.862 127.995C166.546 127.761 166.134 127.645 165.626 127.645C165.077 127.645 164.623 127.789 164.266 128.077C163.923 128.352 163.703 128.744 163.607 129.252L160.846 128.634C160.997 127.686 161.498 126.903 162.35 126.285C163.202 125.667 164.287 125.358 165.605 125.358ZM164.678 134.197C165.406 134.197 166.031 133.949 166.553 133.455C167.089 132.96 167.357 132.39 167.357 131.745V131.477C167.192 131.628 166.876 131.731 166.409 131.786L164.616 131.992C164.218 132.047 163.902 132.178 163.669 132.384C163.435 132.576 163.318 132.823 163.318 133.125C163.318 133.441 163.442 133.702 163.689 133.908C163.937 134.101 164.266 134.197 164.678 134.197ZM30.3707 142.617C30.3707 142.15 30.5355 141.759 30.8652 141.443C31.1948 141.113 31.5932 140.948 32.0602 140.948C32.5135 140.948 32.905 141.113 33.2346 141.443C33.5643 141.759 33.7291 142.15 33.7291 142.617C33.7291 143.071 33.5643 143.462 33.2346 143.792C32.905 144.121 32.5135 144.286 32.0602 144.286C31.5932 144.286 31.1948 144.121 30.8652 143.792C30.5355 143.462 30.3707 143.071 30.3707 142.617ZM33.4407 156.195H30.6591V145.564H33.4407V156.195ZM38.4509 156.195H35.6693V145.564H38.4509V149.664H43.2722V145.564H46.0538V156.195H43.2722V152.095H38.4509V156.195ZM60.1321 147.006C61.1898 148.05 61.7187 149.341 61.7187 150.879C61.7187 152.418 61.1898 153.716 60.1321 154.774C59.0882 155.818 57.7764 156.36 56.1968 156.401V160.316H53.4152V156.401C51.8356 156.36 50.5169 155.818 49.4592 154.774C48.4153 153.716 47.8933 152.418 47.8933 150.879C47.8933 149.341 48.4153 148.05 49.4592 147.006C50.5169 145.948 51.8356 145.399 53.4152 145.358V140.948H56.1968V145.358C57.7764 145.399 59.0882 145.948 60.1321 147.006ZM50.7779 150.879C50.7779 151.704 51.0251 152.397 51.5196 152.96C52.0279 153.524 52.6597 153.826 53.4152 153.867V147.912C52.6597 147.954 52.0279 148.256 51.5196 148.819C51.0251 149.382 50.7779 150.069 50.7779 150.879ZM56.1968 147.912V153.867C56.966 153.826 57.5978 153.524 58.0923 152.96C58.5868 152.397 58.8341 151.704 58.8341 150.879C58.8341 150.069 58.58 149.382 58.0717 148.819C57.5772 148.256 56.9522 147.954 56.1968 147.912ZM64.7125 154.815C63.6274 153.757 63.0848 152.445 63.0848 150.879C63.0848 149.314 63.6274 148.002 64.7125 146.944C65.7977 145.886 67.1507 145.358 68.7715 145.358C70.3924 145.358 71.7454 145.886 72.8305 146.944C73.9157 148.002 74.4583 149.314 74.4583 150.879C74.4583 152.445 73.9157 153.757 72.8305 154.815C71.7454 155.873 70.3924 156.401 68.7715 156.401C67.1507 156.401 65.7977 155.873 64.7125 154.815ZM65.9694 150.879C65.9694 151.731 66.2372 152.445 66.7729 153.022C67.3086 153.585 67.9748 153.867 68.7715 153.867C69.5682 153.867 70.2344 153.585 70.7701 153.022C71.3058 152.445 71.5737 151.731 71.5737 150.879C71.5737 150.028 71.3058 149.32 70.7701 148.757C70.2344 148.194 69.5682 147.912 68.7715 147.912C67.9748 147.912 67.3086 148.201 66.7729 148.778C66.2372 149.341 65.9694 150.042 65.9694 150.879ZM82.9702 145.358C84.2888 145.358 85.3808 145.886 86.2462 146.944C87.1116 148.002 87.5443 149.314 87.5443 150.879C87.5443 152.445 87.1116 153.757 86.2462 154.815C85.3808 155.873 84.2888 156.401 82.9702 156.401C82.0361 156.401 81.2257 156.113 80.5389 155.536C79.8658 154.945 79.3713 154.149 79.0554 153.146V160.316H76.2738V145.564H79.0554V148.613C79.3713 147.61 79.8658 146.82 80.5389 146.244C81.2257 145.653 82.0361 145.358 82.9702 145.358ZM81.9606 153.867C82.716 153.867 83.3548 153.585 83.8767 153.022C84.3987 152.445 84.6597 151.731 84.6597 150.879C84.6597 150.042 84.3987 149.341 83.8767 148.778C83.3548 148.201 82.716 147.912 81.9606 147.912C81.1227 147.912 80.429 148.194 79.8795 148.757C79.3301 149.32 79.0554 150.028 79.0554 150.879C79.0554 151.731 79.3301 152.445 79.8795 153.022C80.429 153.585 81.1227 153.867 81.9606 153.867ZM102.395 145.564V156.195H99.9431V146.141L98.1299 156.195H93.6176L91.8045 146.141V156.195H89.3526V145.564H94.0709L95.8635 155.454L97.656 145.564H102.395ZM109.075 145.358C110.421 145.358 111.513 145.708 112.351 146.408C113.189 147.109 113.608 148.132 113.608 149.478V156.195H110.826V153.558C110.236 155.454 109.013 156.401 107.159 156.401C106.293 156.401 105.552 156.12 104.934 155.557C104.316 154.993 104.006 154.259 104.006 153.352C104.006 151.36 105.373 150.22 108.107 149.932L109.837 149.767C110.497 149.726 110.826 149.444 110.826 148.922C110.826 148.537 110.662 148.228 110.332 147.995C110.016 147.761 109.604 147.645 109.096 147.645C108.546 147.645 108.093 147.789 107.736 148.077C107.392 148.352 107.173 148.744 107.076 149.252L104.316 148.634C104.467 147.686 104.968 146.903 105.82 146.285C106.671 145.667 107.756 145.358 109.075 145.358ZM108.148 154.197C108.876 154.197 109.501 153.949 110.023 153.455C110.559 152.96 110.826 152.39 110.826 151.745V151.477C110.662 151.628 110.346 151.731 109.879 151.786L108.086 151.992C107.688 152.047 107.372 152.178 107.138 152.384C106.905 152.576 106.788 152.823 106.788 153.125C106.788 153.441 106.912 153.702 107.159 153.908C107.406 154.101 107.736 154.197 108.148 154.197ZM120.913 156.195H118.131V148.015H114.649V145.564H124.374V148.015H120.913V156.195ZM128.529 155.66L131.414 145.564H136.462V156.195H133.845V146.182L130.961 156.195H125.913V145.564H128.529V155.66ZM149.054 145.564L145.386 150.694L149.383 156.195H146.045L142.955 152.095H141.471V156.195H138.69V145.564H141.471V149.664H142.955L146.004 145.564H149.054ZM153.359 155.66L156.244 145.564H161.292V156.195H158.675V146.182L155.79 156.195H150.742V145.564H153.359V155.66Z" fill="#333333" fill-opacity="0.7"/>
<rect x="0.527344" y="0.527344" width="190.898" height="190.898" rx="30.0586" stroke="#FED368" stroke-width="1.05469"/>
</svg>
